<svg width="56" height="56" fill="none" xmlns="http://www.w3.org/2000/svg"  viewBox="0 0 36 36"><g clip-path="url(#arbitrum_svg__a)"><path d="M18 36C8.075 36 0 27.924 0 18S8.075 0 18 0s18 8.076 18 18-8.075 18-18 18Z" fill="#213147"></path><path d="M17.819 5.55h.375c.287.043.56.15.811.294 3 1.74 6.005 3.473 9.007 5.21a1.893 1.893 0 0 1 .987 1.73v10.41a1.876 1.876 0 0 1-.911 1.684c-3 1.745-6.01 3.472-9.01 5.216-.26.152-.54.274-.837.333h-.462c-.917-.219-1.656-.862-2.489-1.277.205-.482.384-.975.556-1.469.731.38 1.399.913 2.173 1.19.757-.316 1.427-.813 2.15-1.196l2.398-1.385.936-.543c.801-.463 1.604-.925 2.403-1.39.454-.278.937-.511 1.381-.808.216-.123.165-.404.183-.61-.008-3.089-.004-6.177-.002-9.265-.01-.37.042-.752-.054-1.114-.2-.236-.504-.348-.76-.51-2.795-1.609-5.584-3.23-8.377-4.84a.486.486 0 0 0-.578.011c-2.923 1.691-5.843 3.387-8.77 5.07-.122.085-.272.15-.353.279-.06.409-.024.824-.03 1.235.002 3.09 0 6.178 0 9.268.017.156-.028.367.144.454.45.316.952.552 1.42.84-.185.492-.359.988-.515 1.49-.57-.342-1.159-.658-1.726-1.007-.462-.277-.745-.77-.868-1.285V12.462c.098-.571.44-1.1.95-1.383 3.001-1.742 6.008-3.476 9.01-5.216.265-.155.552-.274.858-.313Z" fill="#9DCCED"></path><path d="M17.698 7.221a.486.486 0 0 1 .578-.011c2.793 1.61 5.582 3.231 8.376 4.84.257.162.561.274.76.51.097.361.045.743.055 1.114-.002 3.088-.006 6.176.002 9.264-.018.207.032.488-.183.61-.445.298-.927.531-1.381.81-1.245-3.38-2.452-6.773-3.709-10.148l-.283-.003c-.376.952-.7 1.924-1.066 2.879-.117.327-.297.681-.122 1.024.928 2.545 1.862 5.088 2.777 7.637l-.936.543c-.74-2.02-1.48-4.037-2.205-6.062a2.245 2.245 0 0 0-.285-.54c-.242.104-.303.372-.392.592-.306.865-.619 1.727-.941 2.585-.07.218-.19.453-.078.681.495 1.378 1.002 2.753 1.503 4.129-.723.383-1.394.88-2.15 1.196-.774-.277-1.442-.81-2.173-1.19 1.755-4.801 3.498-9.607 5.25-14.408.157-.428.36-.85.355-1.316-.837-.008-1.673-.032-2.507.004-.236-.013-.351.22-.419.407l-5.61 15.408-.945-.545 5.077-13.944c.137-.385.302-.759.397-1.155-.081-.24-.345-.175-.54-.19-.672.017-1.345-.022-2.015.02-.237-.013-.334.237-.411.416-1.456 3.997-2.908 7.994-4.368 11.99-.468-.289-.97-.525-1.42-.84-.173-.088-.127-.3-.145-.455.002-3.09.003-6.179 0-9.268.007-.411-.03-.826.03-1.235.082-.13.232-.194.354-.28 2.926-1.682 5.847-3.378 8.77-5.069Z" fill="#213147"></path><path d="M14.477 12.377c.078-.18.174-.43.412-.417.67-.041 1.343-.002 2.014-.019.195.014.46-.05.54.19-.095.396-.26.77-.397 1.155-1.691 4.647-3.385 9.295-5.077 13.943-.79-.46-1.582-.916-2.374-1.374.156-.502.33-.998.515-1.489 1.46-3.996 2.912-7.992 4.367-11.99ZM18.525 12.367c.067-.188.183-.42.419-.408.834-.035 1.67-.011 2.507-.003.005.465-.198.888-.356 1.316-1.751 4.801-3.494 9.606-5.25 14.408-.172.494-.35.986-.555 1.468-.792-.456-1.583-.916-2.375-1.373l5.61-15.408Z" fill="#fff"></path><path d="m21.913 14.208.283.002c1.257 3.375 2.464 6.77 3.709 10.148-.8.465-1.602.927-2.403 1.39-.915-2.549-1.849-5.092-2.777-7.637-.175-.343.005-.697.122-1.024.367-.955.69-1.927 1.066-2.879ZM19.684 20.281c.089-.22.15-.488.392-.592.12.166.215.349.285.54.724 2.025 1.465 4.043 2.204 6.062-.8.46-1.598.923-2.397 1.385-.502-1.376-1.008-2.75-1.503-4.13-.112-.227.008-.462.077-.68.323-.859.636-1.72.942-2.585Z" fill="#12AAFF"></path></g><defs><clipPath id="arbitrum_svg__a"><path fill="#fff" d="M0 0h36v36H0z"></path></clipPath></defs></svg>