<svg width="56" height="56" fill="none" xmlns="http://www.w3.org/2000/svg" viewBox="0 0 96 96"><path fill-rule="evenodd" clip-rule="evenodd" d="M95.981 47.99c0 26.505-21.486 47.991-47.99 47.991C21.485 95.981 0 74.495 0 47.991 0 21.485 21.486 0 47.99 0c26.505 0 47.991 21.486 47.991 47.99Z" fill="#E84142"></path><path fill-rule="evenodd" clip-rule="evenodd" d="M32.774 69.33h-7.986c-2.457 0-3.685 0-4.421-.477a2.967 2.967 0 0 1-1.35-2.324c-.05-.875.56-1.942 1.777-4.076L43.86 22.006c1.235-2.165 1.853-3.248 2.638-3.65a2.967 2.967 0 0 1 2.705-.003c.786.402 1.405 1.484 2.643 3.647l4.074 7.119c1.35 2.36 2.025 3.54 2.322 4.785a8.9 8.9 0 0 1 .002 4.122c-.296 1.245-.97 2.426-2.319 4.787L44.754 62.376c-1.368 2.395-2.052 3.593-2.99 4.489a8.902 8.902 0 0 1-3.61 2.095c-1.242.37-2.622.37-5.38.37ZM72.906 69.334h-12.36c-2.48 0-3.72 0-4.458-.48a2.967 2.967 0 0 1-1.345-2.34c-.044-.88.58-1.951 1.828-4.094l6.17-10.595c1.233-2.115 1.849-3.173 2.629-3.57a2.967 2.967 0 0 1 2.683-.001c.78.395 1.398 1.452 2.633 3.566l6.19 10.595c1.253 2.144 1.88 3.215 1.837 4.096a2.967 2.967 0 0 1-1.344 2.342c-.739.48-1.98.48-4.463.48Z" fill="#fff"></path></svg>