<svg width="56" height="56" fill="none" xmlns="http://www.w3.org/2000/svg"  viewBox="0 0 96 96"><path d="M48 96c26.51 0 48-21.49 48-48S74.51 0 48 0 0 21.49 0 48s21.49 48 48 48Z" fill="#F3BA2F"></path><path fill-rule="evenodd" clip-rule="evenodd" d="M35.606 43.51 48.36 31.083l12.759 12.436 7.42-7.233-20.18-19.67-20.172 19.663 7.42 7.233Zm-4.722 4.169-7.134-7.075-7.134 7.075 7.134 7.075 7.134-7.075Zm17.478 17.24-12.748-12.43-7.428 7.223.01.01 20.166 19.663 20.172-19.669.004-.004-7.422-7.229L48.362 64.92Zm24.251-10.162 7.134-7.075-7.133-7.075-7.135 7.075 7.134 7.075ZM55.085 48h-.003l.006.003-.003.004-6.723 6.722-6.716-6.716-.009-.01.01-.01 1.177-1.177.57-.57 4.968-4.968L55.085 48Z" fill="#fff"></path></svg>