<svg width="56" height="56" fill="none" xmlns="http://www.w3.org/2000/svg" viewBox="0 0 36 36"><path fill-rule="evenodd" clip-rule="evenodd" d="M36 18c0 9.941-8.059 18-18 18S0 27.941 0 18 8.059 0 18 0s18 8.059 18 18Z" fill="#372F45"></path><g clip-path="url(#ethereum_svg__a)"><g clip-path="url(#ethereum_svg__b)"><path d="M18.001 30.182V23.9l-7.773-4.545 7.773 10.828Z" fill="#F0CDC2"></path><path d="M18.027 30.182V23.9l7.773-4.545-7.773 10.828Z" fill="#C9B3F5"></path><path d="M18 22.338v-8.02L10.14 17.84 18 22.338Z" fill="#88AAF1"></path><path d="M18.027 22.338v-8.02l7.862 3.521-7.862 4.499Z" fill="#C9B3F5"></path><path d="M10.139 17.84 18 5.14v9.179l-7.861 3.52Z" fill="#F0CDC2"></path><path d="m25.889 17.84-7.862-12.7v9.179l7.862 3.52Z" fill="#B8FAF6"></path></g></g><defs><clipPath id="ethereum_svg__a"><path fill="#fff" transform="translate(10 5)" d="M0 0h16v25.75H0z"></path></clipPath><clipPath id="ethereum_svg__b"><path fill="#fff" transform="translate(10 5)" d="M0 0h16v25.322H0z"></path></clipPath></defs></svg>