<svg width="56" height="56" fill="none" xmlns="http://www.w3.org/2000/svg"  viewBox="0 0 36 36"><path d="M18 36c9.941 0 18-8.059 18-18S27.941 0 18 0 0 8.059 0 18s8.059 18 18 18Z" fill="#3367F6"></path><path d="M16.902 5.24c.616-.32 1.553-.32 2.17 0l6.286 3.258c.37.192.574.479.611.774h.006V25.65c-.008.323-.214.643-.617.852l-6.287 3.259c-.616.319-1.553.319-2.169 0l-6.286-3.259c-.402-.208-.595-.53-.604-.852a1.125 1.125 0 0 1 0-.08V9.378a.94.94 0 0 1 0-.053v-.053h.003c.028-.299.222-.578.601-.774l6.286-3.259Zm8.083 13.17-5.913 3.065c-.616.319-1.554.319-2.17 0l-5.9-3.059v7.201l5.9 3.043c.333.175.68.345 1.017.367l.068.002c.352.001.694-.175 1.041-.34l5.957-3.098V18.41ZM8.99 25.293c0 .627.075 1.04.222 1.33.123.241.306.425.641.65l.02.012c.073.048.154.1.252.16l.117.07.357.21-.512.832-.4-.237-.067-.04a8.845 8.845 0 0 1-.3-.19c-.956-.632-1.312-1.32-1.319-2.754v-.043h.99Zm8.503-11.274a.905.905 0 0 0-.128.053l-6.286 3.258-.019.01-.005.004.01.005.014.008 6.286 3.258c.04.02.082.038.128.054v-6.65Zm.99 0v6.65a.917.917 0 0 0 .127-.054l6.287-3.258a.624.624 0 0 0 .018-.01l.006-.003-.01-.006-.014-.008-6.287-3.258a.905.905 0 0 0-.127-.053Zm6.503-3.586-5.639 2.923 5.64 2.923v-5.846Zm-13.984.007v5.832l5.626-2.916-5.626-2.916Zm7.608-4.343c-.327-.17-.918-.17-1.245 0l-6.286 3.258a.72.72 0 0 0-.019.01l-.005.003.01.006.014.008 6.286 3.258c.327.17.918.17 1.245 0l6.287-3.258a.543.543 0 0 0 .018-.01l.006-.004-.01-.005-.014-.008-6.287-3.258Zm7.305.357.4.237.067.04c.116.07.212.13.3.19.956.632 1.312 1.32 1.319 2.753v.044h-.99c0-.627-.074-1.04-.221-1.33-.123-.241-.306-.425-.641-.65l-.02-.012a7.682 7.682 0 0 0-.252-.16l-.117-.07-.357-.21.512-.832Z" fill="#fff"></path></svg>