<?xml version="1.0" encoding="UTF-8" standalone="no" ?>
<!DOCTYPE svg PUBLIC "-//W3C//DTD SVG 1.1//EN" "http://www.w3.org/Graphics/SVG/1.1/DTD/svg11.dtd">
<svg xmlns="http://www.w3.org/2000/svg" xmlns:xlink="http://www.w3.org/1999/xlink" version="1.1" width="1080" height="1080" viewBox="0 0 1080 1080" xml:space="preserve">
<desc>Created with Fabric.js 5.2.4</desc>
<defs>
</defs>
<g transform="matrix(1 0 0 1 540 540)" id="65d4863c-a417-4996-ba00-14a136493783"  >
</g>
<g transform="matrix(1 0 0 1 540 540)" id="25fa9ed1-f781-4129-a5f3-dbe1b3c4cad6"  >
<rect style="stroke: none; stroke-width: 1; stroke-dasharray: none; stroke-linecap: butt; stroke-dashoffset: 0; stroke-linejoin: miter; stroke-miterlimit: 4; fill: rgb(255,255,255); fill-rule: nonzero; opacity: 1; visibility: hidden;" vector-effect="non-scaling-stroke"  x="-540" y="-540" rx="0" ry="0" width="1080" height="1080" />
</g>
<g transform="matrix(1.01 0 0 1.01 539 540.11)"  >
<path style="stroke: none; stroke-width: 1; stroke-dasharray: none; stroke-linecap: butt; stroke-dashoffset: 0; stroke-linejoin: miter; stroke-miterlimit: 4; fill: rgb(227,227,227); fill-rule: nonzero; opacity: 1;" vector-effect="non-scaling-stroke"  transform=" translate(-399.8, -299.6)" d="M 399.8 555.1 C 540.9 555.1 655.3 440.70000000000005 655.3 299.6 C 655.3 158.50000000000003 540.9 44.10000000000002 399.79999999999995 44.10000000000002 C 258.69999999999993 44.10000000000002 144.29999999999995 158.50000000000003 144.29999999999995 299.6 C 144.3 440.7 258.7 555.1 399.8 555.1 z" stroke-linecap="round" />
</g>
<g transform="matrix(1 0 0 1 626.15 525.65)"  >
<linearGradient id="SVGID_18" gradientUnits="userSpaceOnUse" gradientTransform="matrix(1 0 0 -1 -20.94 604.36)"  x1="464.5217" y1="377.5703" x2="582.9615" y2="257.8889">
<stop offset="21%" style="stop-color:rgb(241,90,36);stop-opacity: 1"/>
<stop offset="68.41000000000001%" style="stop-color:rgb(251,176,59);stop-opacity: 1"/>
</linearGradient>
<path style="stroke: none; stroke-width: 1; stroke-dasharray: none; stroke-linecap: butt; stroke-dashoffset: 0; stroke-linejoin: miter; stroke-miterlimit: 4; fill: url(#SVGID_18); fill-rule: nonzero; opacity: 1;" vector-effect="non-scaling-stroke"  transform=" translate(-485.95, -285.25)" d="M 488.6 213.2 C 469.3 213.2 448.3 223.7 426 244.29999999999998 C 415.5 253.99999999999997 406.3 264.59999999999997 399.5 272.9 C 399.5 272.9 410.3 285.29999999999995 422.1 298.59999999999997 C 428.6 290.49999999999994 437.70000000000005 279.59999999999997 448.40000000000003 269.7 C 468.1 251.29999999999998 481.00000000000006 247.5 488.50000000000006 247.5 C 516.2 247.5 538.8000000000001 270.8 538.8000000000001 299.5 C 538.8000000000001 327.9 516.3000000000001 351.2 488.50000000000006 351.5 C 487.20000000000005 351.5 485.6000000000001 351.3 483.70000000000005 350.9 C 491.80000000000007 354.59999999999997 500.6 357.29999999999995 508.70000000000005 357.29999999999995 C 559.5 357.29999999999995 569.6 322.19999999999993 570.1 319.69999999999993 C 571.5 313.29999999999995 572.4 306.49999999999994 572.4 299.5999999999999 C 572.4 252 534.8 213.2 488.6 213.2 z" stroke-linecap="round" />
</g>
<g transform="matrix(1 0 0 1 453.85 554.35)"  >
<linearGradient id="SVGID_19" gradientUnits="userSpaceOnUse" gradientTransform="matrix(1 0 0 -1 -20.94 604.36)"  x1="376.9096" y1="231.9637" x2="258.4695" y2="351.6451">
<stop offset="21%" style="stop-color:rgb(237,30,121);stop-opacity: 1"/>
<stop offset="89.29%" style="stop-color:rgb(82,39,133);stop-opacity: 1"/>
</linearGradient>
<path style="stroke: none; stroke-width: 1; stroke-dasharray: none; stroke-linecap: butt; stroke-dashoffset: 0; stroke-linejoin: miter; stroke-miterlimit: 4; fill: url(#SVGID_19); fill-rule: nonzero; opacity: 1;" vector-effect="non-scaling-stroke"  transform=" translate(-313.65, -313.95)" d="M 311 386 C 330.3 386 351.3 375.5 373.6 354.9 C 384.1 345.2 393.3 334.59999999999997 400.1 326.29999999999995 C 400.1 326.29999999999995 389.3 313.9 377.5 300.59999999999997 C 371 308.7 361.9 319.59999999999997 351.2 329.49999999999994 C 331.5 347.79999999999995 318.5 351.69999999999993 311.09999999999997 351.69999999999993 C 283.4 351.69999999999993 260.79999999999995 328.3999999999999 260.79999999999995 299.69999999999993 C 260.79999999999995 271.29999999999995 283.29999999999995 247.99999999999994 311.09999999999997 247.69999999999993 C 312.4 247.69999999999993 313.99999999999994 247.89999999999992 315.9 248.29999999999993 C 307.79999999999995 244.59999999999994 299 241.89999999999992 290.9 241.89999999999992 C 240.09999999999997 241.79999999999993 229.99999999999997 276.8999999999999 229.49999999999997 279.49999999999994 C 228.09999999999997 285.8999999999999 227.19999999999996 292.69999999999993 227.19999999999996 299.59999999999997 C 227.1 347.1 264.6 386 311 386 z" stroke-linecap="round" />
</g>
<g transform="matrix(1 0 0 1 540.15 539.9)"  >
<path style="stroke: none; stroke-width: 1; stroke-dasharray: none; stroke-linecap: butt; stroke-dashoffset: 0; stroke-linejoin: miter; stroke-miterlimit: 4; fill: rgb(41,171,226); fill-rule: evenodd; opacity: 1;" vector-effect="non-scaling-stroke"  transform=" translate(-399.95, -299.5)" d="M 349.7 270.6 C 344.09999999999997 265.20000000000005 317 243.20000000000002 291 242.40000000000003 C 244.6 241.20000000000005 231 274.90000000000003 229.8 279.20000000000005 C 238.8 241.50000000000006 271.90000000000003 213.40000000000003 311.20000000000005 213.20000000000005 C 343.30000000000007 213.20000000000005 375.70000000000005 244.60000000000005 399.70000000000005 273.00000000000006 L 399.80000000000007 272.90000000000003 C 399.80000000000007 272.90000000000003 410.6000000000001 285.3 422.4000000000001 298.6 C 422.4000000000001 298.6 435.9000000000001 314.5 450.1000000000001 328.40000000000003 C 455.7000000000001 333.8 482.7000000000001 355.50000000000006 508.7000000000001 356.3 C 556.4000000000001 357.6 569.6000000000001 322.1 570.2 319.40000000000003 C 561.4000000000001 357.40000000000003 528.2 385.6 488.70000000000005 385.80000000000007 C 456.6 385.80000000000007 424.20000000000005 354.4000000000001 400.1 326.00000000000006 C 400.1 326.1000000000001 400 326.1000000000001 400 326.20000000000005 C 400 326.20000000000005 389.2 313.80000000000007 377.4 300.50000000000006 C 377.5 300.5 364 284.5 349.7 270.6 z M 229.7 279.6 C 229.7 279.5 229.7 279.40000000000003 229.79999999999998 279.3 C 229.7 279.4 229.7 279.5 229.7 279.6 z" stroke-linecap="round" />
</g>
</svg>