<svg width="56" height="56" fill="none" xmlns="http://www.w3.org/2000/svg" viewBox="0 0 36 36"><g clip-path="url(#optimism_svg__a)"><path d="M18 36c9.941 0 18-8.059 18-18S27.941 0 18 0 0 8.059 0 18s8.059 18 18 18Z" fill="#FF273F"></path><path fill-rule="evenodd" clip-rule="evenodd" d="M8.21 22.855c.817.596 1.865.894 3.145.894 1.548 0 2.784-.357 3.71-1.07.924-.724 1.574-1.816 1.95-3.274.226-.895.42-1.816.581-2.763.054-.34.081-.623.081-.846 0-.746-.188-1.385-.564-1.917-.377-.543-.893-.948-1.549-1.214-.656-.277-1.398-.415-2.226-.415-3.042 0-4.93 1.464-5.66 4.392a52.465 52.465 0 0 0-.597 2.763 5.69 5.69 0 0 0-.081.862c0 1.118.403 1.98 1.21 2.588Zm4.903-1.933c-.42.351-.93.527-1.532.527-1.033 0-1.549-.49-1.549-1.47 0-.233.022-.457.065-.67a34.42 34.42 0 0 1 .58-2.62c.183-.723.484-1.26.904-1.612.43-.351.946-.527 1.548-.527 1.021 0 1.532.484 1.532 1.453 0 .234-.021.463-.064.687-.13.745-.318 1.618-.565 2.619-.183.724-.49 1.262-.92 1.613Zm4.968 2.555a.343.343 0 0 0 .274.112h2.194c.107 0 .21-.037.306-.112a.457.457 0 0 0 .178-.287l.741-3.498h2.178c1.408 0 2.516-.293 3.322-.878.817-.586 1.36-1.49 1.63-2.715.064-.287.096-.564.096-.83 0-.927-.366-1.635-1.097-2.125-.72-.49-1.677-.734-2.87-.734h-4.29a.494.494 0 0 0-.307.111.456.456 0 0 0-.178.288l-2.225 10.38a.38.38 0 0 0 .048.288Zm7.161-6.356a1.934 1.934 0 0 1-1.177.367H22.21l.613-2.858h1.935c.441 0 .753.085.936.255.183.16.274.394.274.703 0 .138-.016.298-.049.479-.107.458-.333.81-.677 1.054Z" fill="#fff"></path></g><defs><clipPath id="optimism_svg__a"><path fill="#fff" d="M0 0h36v36H0z"></path></clipPath></defs></svg>