<svg width="56" height="56" fill="none" xmlns="http://www.w3.org/2000/svg"  viewBox="0 0 36 36"><g clip-path="url(#polygon_svg__a)"><g fill-rule="evenodd" clip-rule="evenodd"><path d="M36 18c0 9.941-8.059 18-18 18S0 27.941 0 18 8.059 0 18 0s18 8.059 18 18Z" fill="#7A4ADD"></path><path d="M9.18 26.184h3.017c1.042 0 1.563 0 2.032-.14.51-.152.978-.423 1.363-.79.354-.34.612-.792 1.13-1.696l4.219-7.389c.51-.891.764-1.337.876-1.808a3.362 3.362 0 0 0-.001-1.556c-.112-.47-.367-.916-.877-1.808L19.4 8.31c-.467-.817-.701-1.226-.998-1.378a1.12 1.12 0 0 0-1.022.001c-.296.152-.53.561-.996 1.38L7.672 23.586c-.46.806-.69 1.209-.671 1.54.02.357.21.683.51.877.278.18.742.18 1.67.18Zm13.504.002h4.669c.938 0 1.406 0 1.685-.182a1.12 1.12 0 0 0 .508-.885c.016-.332-.22-.737-.694-1.546l-2.338-4.002c-.466-.798-.7-1.198-.994-1.347a1.12 1.12 0 0 0-1.014.001c-.294.15-.527.55-.992 1.348l-2.33 4.002c-.472.809-.707 1.213-.691 1.546.018.359.207.687.508.883.279.182.747.182 1.683.182Z" fill="#fff"></path></g><g clip-path="url(#polygon_svg__b)"><path fill-rule="evenodd" clip-rule="evenodd" d="M36 18c0 9.941-8.059 18-18 18S0 27.941 0 18 8.059 0 18 0s18 8.059 18 18Z" fill="#6C00F6"></path><path d="m22.335 9.018-5.611 3.222V22.3l-3.097 1.794-3.115-1.796v-3.59l3.115-1.78 2.003 1.162v-2.905l-2.02-1.147L8 17.296v6.447l5.629 3.241 5.61-3.242V13.687l3.115-1.796 3.113 1.796v3.575l-3.113 1.812-2.02-1.172v2.891l2 1.154L28 18.724V12.24l-5.665-3.222Z" fill="#fff"></path></g></g><defs><clipPath id="polygon_svg__a"><path fill="#fff" d="M0 0h36v36H0z"></path></clipPath><clipPath id="polygon_svg__b"><path fill="#fff" d="M0 0h36v36H0z"></path></clipPath></defs></svg>