<svg version="1.2" xmlns="http://www.w3.org/2000/svg" viewBox="0 0 600 600" width="600" height="600">
	<title>icp-svg</title>
	<defs>
		<linearGradient id="g1" x2="1" gradientUnits="userSpaceOnUse" gradientTransform="matrix(118.44,119.681,-97.961,96.945,343.577,226.792)">
			<stop offset=".21" stop-color="#f15a24"/>
			<stop offset=".684" stop-color="#fbb03b"/>
		</linearGradient>
		<linearGradient id="g2" x2="1" gradientUnits="userSpaceOnUse" gradientTransform="matrix(-118.44,-119.681,97.969,-96.953,255.965,372.398)">
			<stop offset=".21" stop-color="#ed1e79"/>
			<stop offset=".893" stop-color="#522785"/>
		</linearGradient>
	</defs>
	<style>
		.s0 { fill: #e3e3e3 } 
		.s1 { fill: url(#g1) } 
		.s2 { fill: url(#g2) } 
		.s3 { fill: #29abe2 } 
	</style>
	<path class="s0" d="m300 599.4c-165.9 0-300-134.1-300-300 0-165.9 134.1-300 300-300 165.9 0 300 134.1 300 300 0 165.9-134.1 300-300 300z"/>
	<path class="s1" d="m388.6 213.2c-19.3 0-40.3 10.5-62.6 31.1-10.5 9.7-19.7 20.3-26.5 28.6 0 0 10.8 12.4 22.6 25.7 6.5-8.1 15.6-19 26.3-28.9 19.7-18.4 32.6-22.2 40.1-22.2 27.7 0 50.3 23.3 50.3 52 0 28.4-22.5 51.7-50.3 52q-1.9 0-4.8-0.6c8.1 3.7 16.9 6.4 25 6.4 50.8 0 60.9-35.1 61.4-37.6 1.4-6.4 2.3-13.2 2.3-20.1 0-47.6-37.6-86.4-83.8-86.4z"/>
	<path class="s2" d="m211 386c19.3 0 40.3-10.5 62.6-31.1 10.5-9.7 19.7-20.3 26.5-28.6 0 0-10.8-12.4-22.6-25.7-6.5 8.1-15.6 19-26.3 28.9-19.7 18.3-32.7 22.2-40.1 22.2-27.7 0-50.3-23.3-50.3-52 0-28.4 22.5-51.7 50.3-52q1.9 0 4.8 0.6c-8.1-3.7-16.9-6.4-25-6.4-50.8-0.1-60.9 35-61.4 37.6-1.4 6.4-2.3 13.2-2.3 20.1-0.1 47.5 37.4 86.4 83.8 86.4z"/>
	<path fill-rule="evenodd" class="s3" d="m249.7 270.6c-5.6-5.4-32.7-27.4-58.7-28.2-46.4-1.2-60 32.5-61.2 36.8 9-37.7 42.1-65.8 81.4-66 32.1 0 64.5 31.4 88.5 59.8l0.1-0.1c0 0 10.8 12.4 22.6 25.7 0 0 13.5 15.9 27.7 29.8 5.6 5.4 32.6 27.1 58.6 27.9 47.7 1.3 60.9-34.2 61.5-36.9-8.8 38-42 66.2-81.5 66.4-32.1 0-64.5-31.4-88.6-59.8 0 0.1-0.1 0.1-0.1 0.2 0 0-10.8-12.4-22.6-25.7 0.1 0-13.4-16-27.7-29.9zm-120 9c0-0.1 0-0.2 0.1-0.3-0.1 0.1-0.1 0.2-0.1 0.3z"/>
</svg>